<?xml version="1.0" encoding="UTF-8" standalone="no"?>
<!-- Created with Inkscape (http://www.inkscape.org/) -->

<svg
   xmlns:dc="http://purl.org/dc/elements/1.1/"
   xmlns:cc="http://creativecommons.org/ns#"
   xmlns:rdf="http://www.w3.org/1999/02/22-rdf-syntax-ns#"
   xmlns:svg="http://www.w3.org/2000/svg"
   xmlns="http://www.w3.org/2000/svg"
   xmlns:sodipodi="http://sodipodi.sourceforge.net/DTD/sodipodi-0.dtd"
   xmlns:inkscape="http://www.inkscape.org/namespaces/inkscape"
   width="120.18444"
   height="379.99997"
   viewBox="0 0 31.7988 100.54166"
   version="1.1"
   id="svg85367"
   inkscape:version="0.92.2 5c3e80d, 2017-08-06"
   sodipodi:docname="8vert.svg">
  <defs
     id="defs85361" />
  <sodipodi:namedview
     id="base"
     pagecolor="#ffffff"
     bordercolor="#666666"
     borderopacity="1.0"
     inkscape:pageopacity="0.0"
     inkscape:pageshadow="2"
     inkscape:zoom="3.959798"
     inkscape:cx="38.959034"
     inkscape:cy="270.79215"
     inkscape:document-units="mm"
     inkscape:current-layer="layer1"
     showgrid="false"
     fit-margin-top="0"
     fit-margin-left="0"
     fit-margin-right="0"
     fit-margin-bottom="0"
     units="px"
     inkscape:window-width="1440"
     inkscape:window-height="856"
     inkscape:window-x="40"
     inkscape:window-y="142"
     inkscape:window-maximized="0"
     inkscape:snap-bbox="true"
     inkscape:bbox-nodes="true"
     inkscape:object-nodes="true"
     inkscape:snap-page="true"
     inkscape:object-paths="false"
     inkscape:snap-bbox-edge-midpoints="false"
     inkscape:bbox-paths="false"
     inkscape:snap-bbox-midpoints="false"
     inkscape:snap-intersection-paths="false"
     inkscape:snap-smooth-nodes="false"
     inkscape:snap-midpoints="false"
     inkscape:snap-object-midpoints="false"
     inkscape:snap-center="false"
     inkscape:snap-others="false" />
  <metadata
     id="metadata85364">
    <rdf:RDF>
      <cc:Work
         rdf:about="">
        <dc:format>image/svg+xml</dc:format>
        <dc:type
           rdf:resource="http://purl.org/dc/dcmitype/StillImage" />
        <dc:title />
      </cc:Work>
    </rdf:RDF>
  </metadata>
  <g
     inkscape:label="Layer 1"
     inkscape:groupmode="layer"
     id="layer1"
     transform="translate(-116.50683,-85.327033)">
    <path
       inkscape:connector-curvature="0"
       id="path65292"
       d="m 116.58014,85.400352 h 31.65218 V 185.79646 h -31.65218 z m 0,0"
       style="fill:#92c089;fill-opacity:1;fill-rule:nonzero;stroke:none;stroke-width:0.27602381" />
    <path
       inkscape:connector-curvature="0"
       id="path69622"
       d="m 146.36593,95.745855 c 0,-0.430211 -0.35259,-0.78171 -0.78281,-0.78171 h -6.00997 c -0.43022,0 -0.78278,0.351499 -0.78278,0.78171 v 9.133585 c 0,0.43021 0.35256,0.78279 0.78278,0.78279 h 6.00997 c 0.43022,0 0.78281,-0.35258 0.78281,-0.78279 z m 0,0"
       style="fill:#bd17c1;fill-opacity:1;fill-rule:nonzero;stroke:none;stroke-width:0.27602381" />
    <path
       inkscape:connector-curvature="0"
       style="fill:#bd17c1;fill-opacity:1;stroke:none;stroke-width:0.27602381"
       d="m 141.25963,97.550775 c 0.38817,0 0.67281,-0.293276 0.67281,-0.651245 0,-0.357967 -0.28034,-0.646931 -0.6685,-0.646931 -0.38815,0 -0.66848,0.293275 -0.66848,0.646931 v 0.0043 c 0,0.357967 0.28033,0.646931 0.66417,0.646931 z m 0.005,-0.254461 c -0.21993,0 -0.37953,-0.181141 -0.37953,-0.396784 0,-0.215644 0.15526,-0.39247 0.37523,-0.39247 0.22426,0 0.38383,0.176826 0.38383,0.39247 v 0.0043 c 0,0.215644 -0.15526,0.39247 -0.37953,0.39247 z m 0,0"
       id="path85036" />
    <path
       inkscape:connector-curvature="0"
       style="fill:#bd17c1;fill-opacity:1;stroke:none;stroke-width:0.27602381"
       d="m 142.75921,97.550775 c 0.34072,0 0.55205,-0.189766 0.55205,-0.5693 v -0.582238 c 0,-0.07763 -0.0603,-0.138012 -0.13802,-0.138012 -0.0776,0 -0.13801,0.06038 -0.13801,0.138012 v 0.595176 c 0,0.198392 -0.10351,0.301901 -0.27171,0.301901 -0.16819,0 -0.27169,-0.10782 -0.27169,-0.310527 v -0.58655 c 0,-0.07763 -0.0604,-0.138012 -0.13802,-0.138012 -0.0733,0 -0.13801,0.06038 -0.13801,0.138012 v 0.590865 c 0,0.370907 0.20702,0.560673 0.54341,0.560673 z m 0,0"
       id="path85028" />
    <path
       inkscape:connector-curvature="0"
       style="fill:#bd17c1;fill-opacity:1;stroke:none;stroke-width:0.27602381"
       d="m 143.93728,97.399823 c 0,0.07763 0.0603,0.138012 0.13801,0.138012 0.0776,0 0.13802,-0.06038 0.13802,-0.138012 v -0.8712 h 0.26307 c 0.0733,0 0.1294,-0.05607 0.1294,-0.129386 0,-0.069 -0.0561,-0.125073 -0.1294,-0.125073 h -0.80651 c -0.069,0 -0.12507,0.05607 -0.12507,0.125073 0,0.07332 0.056,0.129386 0.12507,0.129386 h 0.26741 z m 0,0"
       id="path85032" />
    <path
       inkscape:connector-curvature="0"
       id="path69638"
       d="m 122.24835,101.87444 h 20.32979"
       style="fill:none;stroke:#bd17c1;stroke-width:0.18383186;stroke-linecap:round;stroke-linejoin:round;stroke-miterlimit:10;stroke-opacity:1" />
    <path
       inkscape:connector-curvature="0"
       id="path69666"
       d="m 146.36593,108.90443 c 0,-0.35582 -0.29112,-0.64693 -0.64695,-0.64693 h -6.28169 c -0.35582,0 -0.64692,0.29111 -0.64692,0.64693 v 6.28169 c 0,0.35582 0.2911,0.64693 0.64692,0.64693 h 6.28169 c 0.35583,0 0.64695,-0.29111 0.64695,-0.64693 z m 0,0"
       style="fill:#bd17c1;fill-opacity:1;fill-rule:nonzero;stroke:none;stroke-width:0.27602381" />
    <path
       inkscape:connector-curvature="0"
       id="path69668"
       d="m 122.24835,112.04528 h 20.32979"
       style="fill:none;stroke:#bd17c1;stroke-width:0.18383186;stroke-linecap:round;stroke-linejoin:round;stroke-miterlimit:10;stroke-opacity:1" />
    <path
       inkscape:connector-curvature="0"
       id="path69670"
       d="m 146.36593,119.07634 c 0,-0.35581 -0.29112,-0.64694 -0.64695,-0.64694 h -6.28169 c -0.35582,0 -0.64692,0.29113 -0.64692,0.64694 v 6.28169 c 0,0.35581 0.2911,0.64693 0.64692,0.64693 h 6.28169 c 0.35583,0 0.64695,-0.29112 0.64695,-0.64693 z m 0,0"
       style="fill:#bd17c1;fill-opacity:1;fill-rule:nonzero;stroke:none;stroke-width:0.27602381" />
    <path
       inkscape:connector-curvature="0"
       id="path69672"
       d="m 122.24835,122.21718 h 20.32979"
       style="fill:none;stroke:#bd17c1;stroke-width:0.18383186;stroke-linecap:round;stroke-linejoin:round;stroke-miterlimit:10;stroke-opacity:1" />
    <path
       inkscape:connector-curvature="0"
       id="path69674"
       d="m 146.36593,129.24716 c 0,-0.35581 -0.29112,-0.64693 -0.64695,-0.64693 h -6.28169 c -0.35582,0 -0.64692,0.29112 -0.64692,0.64693 v 6.28278 c 0,0.35581 0.2911,0.64693 0.64692,0.64693 h 6.28169 c 0.35583,0 0.64695,-0.29112 0.64695,-0.64693 z m 0,0"
       style="fill:#bd17c1;fill-opacity:1;fill-rule:nonzero;stroke:none;stroke-width:0.27602381" />
    <path
       inkscape:connector-curvature="0"
       id="path69676"
       d="m 122.24835,132.38909 h 20.32979"
       style="fill:none;stroke:#bd17c1;stroke-width:0.18383186;stroke-linecap:round;stroke-linejoin:round;stroke-miterlimit:10;stroke-opacity:1" />
    <path
       inkscape:connector-curvature="0"
       id="path69678"
       d="m 146.36593,139.41908 c 0,-0.35582 -0.29112,-0.64694 -0.64695,-0.64694 h -6.28169 c -0.35582,0 -0.64692,0.29112 -0.64692,0.64694 v 6.28277 c 0,0.35581 0.2911,0.64585 0.64692,0.64585 h 6.28169 c 0.35583,0 0.64695,-0.29004 0.64695,-0.64585 z m 0,0"
       style="fill:#bd17c1;fill-opacity:1;fill-rule:nonzero;stroke:none;stroke-width:0.27602381" />
    <path
       inkscape:connector-curvature="0"
       id="path69680"
       d="m 122.24835,142.55992 h 20.32979"
       style="fill:none;stroke:#bd17c1;stroke-width:0.18383186;stroke-linecap:round;stroke-linejoin:round;stroke-miterlimit:10;stroke-opacity:1" />
    <path
       inkscape:connector-curvature="0"
       id="path69682"
       d="m 146.36593,149.59098 c 0,-0.35581 -0.29112,-0.64693 -0.64695,-0.64693 h -6.28169 c -0.35582,0 -0.64692,0.29112 -0.64692,0.64693 v 6.2817 c 0,0.35581 0.2911,0.64694 0.64692,0.64694 h 6.28169 c 0.35583,0 0.64695,-0.29113 0.64695,-0.64694 z m 0,0"
       style="fill:#bd17c1;fill-opacity:1;fill-rule:nonzero;stroke:none;stroke-width:0.27602381" />
    <path
       inkscape:connector-curvature="0"
       id="path69684"
       d="m 122.24835,152.73183 h 20.32979"
       style="fill:none;stroke:#bd17c1;stroke-width:0.18383186;stroke-linecap:round;stroke-linejoin:round;stroke-miterlimit:10;stroke-opacity:1" />
    <path
       inkscape:connector-curvature="0"
       id="path69686"
       d="m 146.36593,159.76181 c 0,-0.35581 -0.29112,-0.64585 -0.64695,-0.64585 h -6.28169 c -0.35582,0 -0.64692,0.29004 -0.64692,0.64585 v 6.28278 c 0,0.35581 0.2911,0.64692 0.64692,0.64692 h 6.28169 c 0.35583,0 0.64695,-0.29111 0.64695,-0.64692 z m 0,0"
       style="fill:#bd17c1;fill-opacity:1;fill-rule:nonzero;stroke:none;stroke-width:0.27602381" />
    <path
       inkscape:connector-curvature="0"
       id="path69688"
       d="m 122.24835,162.90374 h 20.32979"
       style="fill:none;stroke:#bd17c1;stroke-width:0.18383186;stroke-linecap:round;stroke-linejoin:round;stroke-miterlimit:10;stroke-opacity:1" />
    <path
       inkscape:connector-curvature="0"
       id="path69690"
       d="m 146.36593,169.93371 c 0,-0.35581 -0.29112,-0.64692 -0.64695,-0.64692 h -6.28169 c -0.35582,0 -0.64692,0.29111 -0.64692,0.64692 v 6.28278 c 0,0.35581 0.2911,0.64586 0.64692,0.64586 h 6.28169 c 0.35583,0 0.64695,-0.29005 0.64695,-0.64586 z m 0,0"
       style="fill:#bd17c1;fill-opacity:1;fill-rule:nonzero;stroke:none;stroke-width:0.27602381" />
    <path
       inkscape:connector-curvature="0"
       id="path69692"
       d="m 122.24835,173.07457 h 20.32979"
       style="fill:none;stroke:#bd17c1;stroke-width:0.18383186;stroke-linecap:round;stroke-linejoin:round;stroke-miterlimit:10;stroke-opacity:1" />
    <path
       inkscape:connector-curvature="0"
       style="fill:#000000;fill-opacity:1;stroke:none;stroke-width:0.27602381"
       d="m 121.3855,97.442408 c 0,0.06038 0.0518,0.10782 0.11214,0.10782 0.0604,0 0.11213,-0.04744 0.11213,-0.10782 v -1.056655 c 0,-0.06038 -0.0517,-0.10782 -0.11213,-0.10782 -0.0604,0 -0.11214,0.04744 -0.11214,0.10782 z m 0,0"
       id="path85000" />
    <path
       inkscape:connector-curvature="0"
       style="fill:#000000;fill-opacity:1;stroke:none;stroke-width:0.27602381"
       d="m 121.99871,97.442408 c 0,0.06038 0.0517,0.10782 0.11215,0.10782 0.0604,0 0.10782,-0.04744 0.10782,-0.10782 v -0.797883 l 0.64694,0.836698 c 0.0302,0.03882 0.0604,0.069 0.11212,0.069 h 0.009 c 0.0604,0 0.10782,-0.05176 0.10782,-0.112135 v -1.052337 c 0,-0.06038 -0.0474,-0.10782 -0.10782,-0.10782 -0.0604,0 -0.10784,0.04744 -0.10784,0.10782 v 0.772005 l -0.62966,-0.815134 c -0.0302,-0.03882 -0.0604,-0.06469 -0.11216,-0.06469 h -0.026 c -0.0604,0 -0.11215,0.05176 -0.11215,0.112134 z m 0,0"
       id="path85004" />
    <path
       inkscape:connector-curvature="0"
       id="path69832"
       d="m 123.91418,103.51118 -1.67986,2.7376 -1.67985,-2.7376 z m 0,0"
       style="fill:#000000;fill-opacity:1;fill-rule:nonzero;stroke:none;stroke-width:0.27602381" />
    <path
       inkscape:connector-curvature="0"
       id="path69834"
       d="m 123.91418,113.68201 -1.67986,2.73867 -1.67985,-2.73867 z m 0,0"
       style="fill:#000000;fill-opacity:1;fill-rule:nonzero;stroke:none;stroke-width:0.27602381" />
    <path
       inkscape:connector-curvature="0"
       id="path69836"
       d="m 123.91418,123.85392 -1.67986,2.73867 -1.67985,-2.73867 z m 0,0"
       style="fill:#000000;fill-opacity:1;fill-rule:nonzero;stroke:none;stroke-width:0.27602381" />
    <path
       inkscape:connector-curvature="0"
       id="path69838"
       d="m 123.91418,134.02583 -1.67986,2.73867 -1.67985,-2.73867 z m 0,0"
       style="fill:#000000;fill-opacity:1;fill-rule:nonzero;stroke:none;stroke-width:0.27602381" />
    <path
       inkscape:connector-curvature="0"
       id="path69840"
       d="m 123.91418,144.19773 -1.67986,2.7376 -1.67985,-2.7376 z m 0,0"
       style="fill:#000000;fill-opacity:1;fill-rule:nonzero;stroke:none;stroke-width:0.27602381" />
    <path
       inkscape:connector-curvature="0"
       id="path69842"
       d="m 123.91418,154.36857 -1.67986,2.73867 -1.67985,-2.73867 z m 0,0"
       style="fill:#000000;fill-opacity:1;fill-rule:nonzero;stroke:none;stroke-width:0.27602381" />
    <path
       inkscape:connector-curvature="0"
       id="path69844"
       d="m 123.91418,164.54047 -1.67986,2.73867 -1.67985,-2.73867 z m 0,0"
       style="fill:#000000;fill-opacity:1;fill-rule:nonzero;stroke:none;stroke-width:0.27602381" />
    <g
       aria-label="asdasd
vert"
       transform="scale(0.97116118,1.0296952)"
       style="font-style:normal;font-weight:normal;font-size:6.47970581px;line-height:1.25;font-family:sans-serif;letter-spacing:0px;word-spacing:0px;fill:#000000;fill-opacity:1;stroke:none;stroke-width:0.16199264"
       id="text1081">
      <path
         d="m 131.70148,85.848119 v 0.0054 q 0.17349,0 0.29276,-0.09759 0.12469,-0.09759 0.12469,-0.233124 0,-0.140958 -0.12469,-0.238545 -0.11927,-0.09759 -0.29276,-0.09759 -0.16807,0 -0.29276,0.09759 -0.11928,0.09759 -0.11928,0.238545 0,0.135537 0.11928,0.233124 0.12469,0.09217 0.29276,0.09217 z m 0.81322,0.18433 h -0.005 z m -1.42585,-1.474645 -0.0651,-0.05421 0.1247,-0.01084 q 0.0867,-0.09216 0.23854,-0.151801 0.1518,-0.06506 0.28192,-0.06506 0.12469,0 0.26565,0.05964 0.14638,0.05964 0.2277,0.14638 0.27108,0.271075 0.26566,0.704794 0,0 0,0.563835 0,0 0,0.195173 l 0.0813,0.08674 h -0.30903 q 0,0 0,-0.162644 -0.0813,0.08674 -0.2277,0.14638 -0.14096,0.05964 -0.26023,0.05964 -0.005,0 -0.0108,0 -0.26023,0 -0.44999,-0.162645 -0.18975,-0.162644 -0.18975,-0.390347 0,-0.233124 0.18975,-0.395768 0.18976,-0.168067 0.44999,-0.168067 0.005,0 0.0108,0 0.11927,0 0.26023,0.06506 0.14638,0.05964 0.2277,0.146381 0,-0.01084 0,-0.01627 0,-0.124694 -0.0596,-0.271074 -0.0542,-0.151802 -0.13554,-0.243967 -0.0542,-0.05421 -0.1518,-0.09759 -0.0976,-0.04337 -0.17891,-0.04337 -0.005,0 -0.005,0 -0.10301,0.0054 -0.22228,0.06506 -0.11927,0.05421 -0.17891,0.135537 z"
         style="font-style:normal;font-variant:normal;font-weight:normal;font-stretch:normal;font-size:5.42148876px;line-height:0;font-family:Santario;-inkscape-font-specification:'Santario, Normal';font-variant-ligatures:normal;font-variant-caps:normal;font-variant-numeric:normal;font-feature-settings:normal;text-align:center;letter-spacing:0px;word-spacing:0px;writing-mode:lr-tb;text-anchor:middle;stroke-width:0.16199264"
         id="path909" />
      <path
         d="m 134.03517,84.54154 q -0.16264,-0.09217 -0.41203,-0.09217 -0.24397,0 -0.41203,0.09217 -0.16807,0.09217 -0.16265,0.200595 0,0.02169 0,0.03795 0.0379,0.130116 0.17349,0.184331 0.14096,0.04879 0.40661,0.07048 l 0.0976,0.01084 q 0.70479,0.07048 0.70479,0.515042 0,0.216859 -0.23854,0.368661 -0.23313,0.151802 -0.56926,0.151802 -0.29818,0 -0.52046,-0.119273 -0.21686,-0.119273 -0.27108,-0.298182 l -0.103,-0.103008 h 0.31444 q 0,0.108429 0.16807,0.200595 0.16806,0.09216 0.41203,0.09216 0.24939,0 0.41203,-0.09216 0.16807,-0.09217 0.16807,-0.200595 0,-0.02711 -0.005,-0.04879 0,-0.02169 -0.0271,-0.06506 -0.0271,-0.04337 -0.0759,-0.07048 -0.0434,-0.03253 -0.14638,-0.05964 -0.0976,-0.03253 -0.23854,-0.04879 -0.038,0 -0.10301,-0.0054 -0.11385,-0.01084 -0.17891,-0.01626 -0.0651,-0.01084 -0.17891,-0.03795 -0.11385,-0.02711 -0.18433,-0.06506 -0.0705,-0.04337 -0.14096,-0.119273 -0.0651,-0.08132 -0.0922,-0.18433 -0.0108,-0.04879 -0.0108,-0.09217 0,-0.222281 0.23313,-0.374082 0.23312,-0.151802 0.57467,-0.151802 0.29276,0 0.51504,0.119273 0.22229,0.119272 0.2765,0.303603 l 0.10301,0.103008 h -0.31987 q 0,-0.113851 -0.16807,-0.206016 z"
         style="font-style:normal;font-variant:normal;font-weight:normal;font-stretch:normal;font-size:5.42148876px;line-height:0;font-family:Santario;-inkscape-font-specification:'Santario, Normal';font-variant-ligatures:normal;font-variant-caps:normal;font-variant-numeric:normal;font-feature-settings:normal;text-align:center;letter-spacing:0px;word-spacing:0px;writing-mode:lr-tb;text-anchor:middle;stroke-width:0.16199264"
         id="path911" />
      <path
         d="m 135.06865,85.154168 h -0.005 q 0,0.29276 0.17349,0.498777 0.17891,0.206017 0.42288,0.206017 0.22228,0 0.39035,-0.173488 0.16806,-0.178909 0.19517,-0.439141 v -0.18433 q -0.0271,-0.260232 -0.19517,-0.439141 -0.16807,-0.178909 -0.39035,-0.178909 -0.24397,0 -0.42288,0.211438 -0.17349,0.206017 -0.16806,0.498777 z m 0.0163,0.656 q -0.23854,-0.276496 -0.23854,-0.656 0,-0.384926 0.23854,-0.656 0.23855,-0.276496 0.57468,-0.276496 0.1518,0.0054 0.31987,0.09217 0.17348,0.08132 0.26565,0.195174 V 82.8663 h 0.31445 l -0.0867,0.08674 v 2.992661 l 0.0867,0.08674 h -0.31445 v -0.238545 q -0.0922,0.113851 -0.26565,0.200595 -0.16807,0.08132 -0.31987,0.08674 -0.33613,0 -0.57468,-0.271075 z"
         style="font-style:normal;font-variant:normal;font-weight:normal;font-stretch:normal;font-size:5.42148876px;line-height:0;font-family:Santario;-inkscape-font-specification:'Santario, Normal';font-variant-ligatures:normal;font-variant-caps:normal;font-variant-numeric:normal;font-feature-settings:normal;text-align:center;letter-spacing:0px;word-spacing:0px;writing-mode:lr-tb;text-anchor:middle;stroke-width:0.16199264"
         id="path913" />
      <path
         d="m 137.46181,85.848119 v 0.0054 q 0.17349,0 0.29276,-0.09759 0.12469,-0.09759 0.12469,-0.233124 0,-0.140958 -0.12469,-0.238545 -0.11927,-0.09759 -0.29276,-0.09759 -0.16807,0 -0.29276,0.09759 -0.11927,0.09759 -0.11927,0.238545 0,0.135537 0.11927,0.233124 0.12469,0.09217 0.29276,0.09217 z m 0.81322,0.18433 h -0.005 z m -1.42585,-1.474645 -0.0651,-0.05421 0.1247,-0.01084 q 0.0867,-0.09216 0.23854,-0.151801 0.1518,-0.06506 0.28192,-0.06506 0.12469,0 0.26565,0.05964 0.14638,0.05964 0.22771,0.14638 0.27107,0.271075 0.26565,0.704794 0,0 0,0.563835 0,0 0,0.195173 l 0.0813,0.08674 h -0.30902 q 0,0 0,-0.162644 -0.0813,0.08674 -0.22771,0.14638 -0.14095,0.05964 -0.26023,0.05964 -0.005,0 -0.0108,0 -0.26023,0 -0.44998,-0.162645 -0.18976,-0.162644 -0.18976,-0.390347 0,-0.233124 0.18976,-0.395768 0.18975,-0.168067 0.44998,-0.168067 0.005,0 0.0108,0 0.11928,0 0.26023,0.06506 0.14638,0.05964 0.22771,0.146381 0,-0.01084 0,-0.01627 0,-0.124694 -0.0596,-0.271074 -0.0542,-0.151802 -0.13554,-0.243967 -0.0542,-0.05421 -0.1518,-0.09759 -0.0976,-0.04337 -0.17891,-0.04337 -0.005,0 -0.005,0 -0.10301,0.0054 -0.22228,0.06506 -0.11927,0.05421 -0.17891,0.135537 z"
         style="font-style:normal;font-variant:normal;font-weight:normal;font-stretch:normal;font-size:5.42148876px;line-height:0;font-family:Santario;-inkscape-font-specification:'Santario, Normal';font-variant-ligatures:normal;font-variant-caps:normal;font-variant-numeric:normal;font-feature-settings:normal;text-align:center;letter-spacing:0px;word-spacing:0px;writing-mode:lr-tb;text-anchor:middle;stroke-width:0.16199264"
         id="path915" />
      <path
         d="m 139.79551,84.54154 q -0.16265,-0.09217 -0.41204,-0.09217 -0.24396,0 -0.41203,0.09217 -0.16807,0.09217 -0.16264,0.200595 0,0.02169 0,0.03795 0.0379,0.130116 0.17348,0.184331 0.14096,0.04879 0.40661,0.07048 l 0.0976,0.01084 q 0.70479,0.07048 0.70479,0.515042 0,0.216859 -0.23854,0.368661 -0.23312,0.151802 -0.56926,0.151802 -0.29818,0 -0.52046,-0.119273 -0.21686,-0.119273 -0.27107,-0.298182 l -0.10301,-0.103008 h 0.31444 q 0,0.108429 0.16807,0.200595 0.16807,0.09216 0.41203,0.09216 0.24939,0 0.41204,-0.09216 0.16806,-0.09217 0.16806,-0.200595 0,-0.02711 -0.005,-0.04879 0,-0.02169 -0.0271,-0.06506 -0.0271,-0.04337 -0.0759,-0.07048 -0.0434,-0.03253 -0.14638,-0.05964 -0.0976,-0.03253 -0.23854,-0.04879 -0.038,0 -0.10301,-0.0054 -0.11385,-0.01084 -0.17891,-0.01626 -0.0651,-0.01084 -0.17891,-0.03795 -0.11385,-0.02711 -0.18433,-0.06506 -0.0705,-0.04337 -0.14096,-0.119273 -0.0651,-0.08132 -0.0922,-0.18433 -0.0109,-0.04879 -0.0109,-0.09217 0,-0.222281 0.23313,-0.374082 0.23312,-0.151802 0.57467,-0.151802 0.29276,0 0.51505,0.119273 0.22228,0.119272 0.27649,0.303603 l 0.10301,0.103008 h -0.31987 q 0,-0.113851 -0.16806,-0.206016 z"
         style="font-style:normal;font-variant:normal;font-weight:normal;font-stretch:normal;font-size:5.42148876px;line-height:0;font-family:Santario;-inkscape-font-specification:'Santario, Normal';font-variant-ligatures:normal;font-variant-caps:normal;font-variant-numeric:normal;font-feature-settings:normal;text-align:center;letter-spacing:0px;word-spacing:0px;writing-mode:lr-tb;text-anchor:middle;stroke-width:0.16199264"
         id="path917" />
      <path
         d="m 140.82898,85.154168 h -0.005 q 0,0.29276 0.17348,0.498777 0.17891,0.206017 0.42288,0.206017 0.22228,0 0.39035,-0.173488 0.16806,-0.178909 0.19517,-0.439141 v -0.18433 q -0.0271,-0.260232 -0.19517,-0.439141 -0.16807,-0.178909 -0.39035,-0.178909 -0.24397,0 -0.42288,0.211438 -0.17348,0.206017 -0.16806,0.498777 z m 0.0163,0.656 q -0.23854,-0.276496 -0.23854,-0.656 0,-0.384926 0.23854,-0.656 0.23855,-0.276496 0.57468,-0.276496 0.1518,0.0054 0.31987,0.09217 0.17349,0.08132 0.26565,0.195174 V 82.8663 h 0.31445 l -0.0867,0.08674 v 2.992661 l 0.0867,0.08674 h -0.31445 v -0.238545 q -0.0922,0.113851 -0.26565,0.200595 -0.16807,0.08132 -0.31987,0.08674 -0.33613,0 -0.57468,-0.271075 z"
         style="font-style:normal;font-variant:normal;font-weight:normal;font-stretch:normal;font-size:5.42148876px;line-height:0;font-family:Santario;-inkscape-font-specification:'Santario, Normal';font-variant-ligatures:normal;font-variant-caps:normal;font-variant-numeric:normal;font-feature-settings:normal;text-align:center;letter-spacing:0px;word-spacing:0px;writing-mode:lr-tb;text-anchor:middle;stroke-width:0.16199264"
         id="path919" />
      <path
         d="m 134.80287,87.928891 -0.95419,1.767406 -0.91081,-1.691505 -0.11927,-0.03253 0.0759,-0.04337 0.2006,-0.10843 0.75358,1.398745 0.75901,-1.398745 z"
         style="font-style:normal;font-variant:normal;font-weight:normal;font-stretch:normal;font-size:5.42148876px;line-height:0;font-family:Santario;-inkscape-font-specification:'Santario, Normal';font-variant-ligatures:normal;font-variant-caps:normal;font-variant-numeric:normal;font-feature-settings:normal;text-align:center;letter-spacing:0px;word-spacing:0px;writing-mode:lr-tb;text-anchor:middle;stroke-width:0.16199264"
         id="path921" />
      <path
         d="m 135.20126,88.649949 h 1.25779 q -0.0379,-0.25481 -0.21686,-0.422876 -0.17891,-0.168066 -0.41746,-0.168066 -0.23312,0 -0.41203,0.173488 -0.17349,0.168066 -0.21144,0.417454 z m 1.49091,0.113852 v 0.108429 h -1.49091 q 0.038,0.25481 0.21144,0.422876 0.17891,0.168067 0.41745,0.168067 0.10843,0 0.23313,-0.05421 0.13011,-0.05421 0.20059,-0.135538 l 0.16265,0.162645 0.0651,0.05964 h -0.13554 q -0.0922,0.08132 -0.24939,0.140958 -0.1518,0.05421 -0.2765,0.05421 -0.35781,0 -0.61262,-0.271074 -0.24939,-0.271075 -0.24939,-0.656 0,-0.384926 0.24939,-0.656001 0.25481,-0.276496 0.61262,-0.276496 0.35782,0 0.60721,0.276496 0.25481,0.271075 0.25481,0.656001 z"
         style="font-style:normal;font-variant:normal;font-weight:normal;font-stretch:normal;font-size:5.42148876px;line-height:0;font-family:Santario;-inkscape-font-specification:'Santario, Normal';font-variant-ligatures:normal;font-variant-caps:normal;font-variant-numeric:normal;font-feature-settings:normal;text-align:center;letter-spacing:0px;word-spacing:0px;writing-mode:lr-tb;text-anchor:middle;stroke-width:0.16199264"
         id="path923" />
      <path
         d="m 138.80604,88.639106 h -0.30902 q 0,-0.0054 0,-0.01626 0,-0.238546 -0.17349,-0.406612 -0.16807,-0.173487 -0.41203,-0.173487 -0.23855,0 -0.40661,0.173487 -0.16807,0.168066 -0.16807,0.406612 0,0.01084 0,0.01626 v 1.002976 h -0.31445 l 0.0867,-0.08674 V 87.96142 l -0.0867,-0.08674 h 0.31445 v 0.206017 q 0.0976,-0.103008 0.26565,-0.173488 0.17349,-0.0759 0.31445,-0.0759 0.29818,0 0.5313,0.211439 0.23313,0.206016 0.26566,0.504198 z"
         style="font-style:normal;font-variant:normal;font-weight:normal;font-stretch:normal;font-size:5.42148876px;line-height:0;font-family:Santario;-inkscape-font-specification:'Santario, Normal';font-variant-ligatures:normal;font-variant-caps:normal;font-variant-numeric:normal;font-feature-settings:normal;text-align:center;letter-spacing:0px;word-spacing:0px;writing-mode:lr-tb;text-anchor:middle;stroke-width:0.16199264"
         id="path925" />
      <path
         d="m 140.53956,87.874676 v 0.227703 h -0.71563 v 1.539703 h -0.22228 -0.0867 l 0.0867,-0.08674 v -1.452959 h -0.71564 v -0.227703 h 0.71564 v -1.312 l -0.0867,-0.08674 h 0.0867 0.22228 v 1.398744 z"
         style="font-style:normal;font-variant:normal;font-weight:normal;font-stretch:normal;font-size:5.42148876px;line-height:0;font-family:Santario;-inkscape-font-specification:'Santario, Normal';font-variant-ligatures:normal;font-variant-caps:normal;font-variant-numeric:normal;font-feature-settings:normal;text-align:center;letter-spacing:0px;word-spacing:0px;writing-mode:lr-tb;text-anchor:middle;stroke-width:0.16199264"
         id="path927" />
    </g>
    <g
       aria-label="scale"
       style="font-style:normal;font-weight:normal;font-size:10.58333302px;line-height:1.25;font-family:sans-serif;letter-spacing:0px;word-spacing:0px;fill:#000000;fill-opacity:1;stroke:none;stroke-width:0.26458332"
       id="text940"
       transform="translate(-0.37882476,2.0003566)">
      <path
         d="m 127.34043,94.443681 v 0.11989 q -0.0537,-0.02756 -0.11162,-0.04134 -0.0579,-0.01378 -0.11989,-0.01378 -0.0944,0 -0.14194,0.02894 -0.0469,0.02894 -0.0469,0.08682 0,0.0441 0.0338,0.06959 0.0338,0.02481 0.13574,0.04754 l 0.0434,0.0096 q 0.13504,0.02894 0.19154,0.08199 0.0572,0.05237 0.0572,0.146761 0,0.107487 -0.0854,0.170188 -0.0847,0.0627 -0.23357,0.0627 -0.062,0 -0.12954,-0.0124 -0.0668,-0.01171 -0.14125,-0.03583 v -0.130913 q 0.0703,0.03652 0.13849,0.05512 0.0682,0.01791 0.13505,0.01791 0.0896,0 0.13781,-0.03032 0.0482,-0.03101 0.0482,-0.08682 0,-0.05168 -0.0351,-0.07924 -0.0344,-0.02756 -0.15228,-0.05305 l -0.0441,-0.01034 q -0.11783,-0.0248 -0.17019,-0.07579 -0.0524,-0.05168 -0.0524,-0.141249 0,-0.108865 0.0772,-0.16812 0.0772,-0.05926 0.21911,-0.05926 0.0703,0 0.13229,0.01033 0.062,0.01034 0.11438,0.03101 z"
         style="font-size:1.41111124px;text-align:center;text-anchor:middle;stroke-width:0.26458332"
         id="path1041"
         inkscape:connector-curvature="0" />
      <path
         d="m 128.13969,94.450571 v 0.118512 q -0.0537,-0.02963 -0.10817,-0.0441 -0.0537,-0.01516 -0.10887,-0.01516 -0.12333,0 -0.19155,0.07855 -0.0682,0.07786 -0.0682,0.219108 0,0.141249 0.0682,0.219797 0.0682,0.07786 0.19155,0.07786 0.0551,0 0.10887,-0.01447 0.0544,-0.01516 0.10817,-0.04479 v 0.117133 q -0.0531,0.02481 -0.11024,0.03721 -0.0565,0.0124 -0.12058,0.0124 -0.17432,0 -0.27698,-0.109554 -0.10267,-0.109554 -0.10267,-0.29559 0,-0.188791 0.10335,-0.296967 0.10405,-0.108176 0.28457,-0.108176 0.0586,0 0.11438,0.0124 0.0558,0.01171 0.10817,0.03583 z"
         style="font-size:1.41111124px;text-align:center;text-anchor:middle;stroke-width:0.26458332"
         id="path1043"
         inkscape:connector-curvature="0" />
      <path
         d="m 128.71227,94.804727 q -0.15365,0 -0.21291,0.03514 -0.0593,0.03514 -0.0593,0.11989 0,0.06752 0.0441,0.107487 0.0448,0.03927 0.12127,0.03927 0.10542,0 0.16881,-0.07441 0.0641,-0.0751 0.0641,-0.199127 v -0.02825 z m 0.25287,-0.05236 v 0.440283 h -0.12678 v -0.117133 q -0.0434,0.07028 -0.10818,0.104042 -0.0648,0.03307 -0.15847,0.03307 -0.11851,0 -0.18879,-0.06615 -0.0696,-0.06683 -0.0696,-0.178456 0,-0.130225 0.0868,-0.196371 0.0875,-0.06614 0.26045,-0.06614 h 0.17777 v -0.0124 q 0,-0.08751 -0.0579,-0.135048 -0.0572,-0.04823 -0.16123,-0.04823 -0.0661,0 -0.12885,0.01585 -0.0627,0.01585 -0.12058,0.04754 v -0.117133 q 0.0696,-0.02687 0.13505,-0.03996 0.0655,-0.01378 0.12747,-0.01378 0.16743,0 0.25011,0.08682 0.0827,0.08682 0.0827,0.263205 z"
         style="font-size:1.41111124px;text-align:center;text-anchor:middle;stroke-width:0.26458332"
         id="path1045"
         inkscape:connector-curvature="0" />
      <path
         d="m 129.22696,94.120531 h 0.12678 v 1.072114 h -0.12678 z"
         style="font-size:1.41111124px;text-align:center;text-anchor:middle;stroke-width:0.26458332"
         id="path1047"
         inkscape:connector-curvature="0" />
      <path
         d="m 130.27841,94.775099 v 0.06201 h -0.58291 q 0.008,0.130914 0.0785,0.199816 0.071,0.06821 0.19705,0.06821 0.073,0 0.14125,-0.01792 0.0689,-0.01791 0.13643,-0.05374 v 0.119889 q -0.0682,0.02894 -0.13987,0.0441 -0.0717,0.01516 -0.14538,0.01516 -0.18466,0 -0.29284,-0.107487 -0.10748,-0.107487 -0.10748,-0.290766 0,-0.189481 0.10197,-0.300413 0.10266,-0.111621 0.2763,-0.111621 0.15572,0 0.24598,0.100597 0.091,0.09991 0.091,0.272162 z m -0.12678,-0.03721 q -0.001,-0.104041 -0.0586,-0.166053 -0.0565,-0.06201 -0.1502,-0.06201 -0.10611,0 -0.17019,0.05994 -0.0634,0.05994 -0.073,0.168809 z"
         style="font-size:1.41111124px;text-align:center;text-anchor:middle;stroke-width:0.26458332"
         id="path1049"
         inkscape:connector-curvature="0" />
    </g>
    <text
       xml:space="preserve"
       style="font-style:normal;font-weight:normal;font-size:10.58333302px;line-height:1.25;font-family:sans-serif;letter-spacing:0px;word-spacing:0px;fill:#000000;fill-opacity:1;stroke:none;stroke-width:0.26458332"
       x="134.27171"
       y="95.437889"
       id="text972"><tspan
         sodipodi:role="line"
         id="tspan970"
         x="134.27171"
         y="104.80166"
         style="stroke-width:0.26458332"></tspan></text>
    <text
       xml:space="preserve"
       style="font-style:normal;font-weight:normal;font-size:10.58333302px;line-height:1.25;font-family:sans-serif;letter-spacing:0px;word-spacing:0px;fill:#000000;fill-opacity:1;stroke:none;stroke-width:0.26458332"
       x="135.79156"
       y="92.304024"
       id="text976"><tspan
         sodipodi:role="line"
         id="tspan974"
         x="135.79156"
         y="101.66779"
         style="stroke-width:0.26458332"></tspan></text>
    <g
       aria-label="offset"
       style="font-style:normal;font-weight:normal;font-size:10.58333302px;line-height:1.25;font-family:sans-serif;letter-spacing:0px;word-spacing:0px;fill:#000000;fill-opacity:1;stroke:none;stroke-width:0.26458332"
       id="text1006"
       transform="translate(-0.84654641,2.067174)"
       inkscape:transform-center-x="1.4699824"
       inkscape:transform-center-y="0.86862598">
      <path
         d="m 134.11091,94.58151 q -0.10198,0 -0.16123,0.07993 -0.0593,0.07924 -0.0593,0.21773 0,0.138493 0.0586,0.218419 0.0593,0.07924 0.16192,0.07924 0.10128,0 0.16054,-0.07993 0.0593,-0.07993 0.0593,-0.21773 0,-0.137114 -0.0593,-0.217041 -0.0593,-0.08062 -0.16054,-0.08062 z m 0,-0.107487 q 0.16536,0 0.25976,0.107487 0.0944,0.107487 0.0944,0.297656 0,0.189481 -0.0944,0.297657 -0.0944,0.107487 -0.25976,0.107487 -0.16605,0 -0.26045,-0.107487 -0.0937,-0.108176 -0.0937,-0.297657 0,-0.190169 0.0937,-0.297656 0.0944,-0.107487 0.26045,-0.107487 z"
         style="font-size:1.41111112px;stroke-width:0.26458332"
         id="path1028"
         inkscape:connector-curvature="0" />
      <path
         d="m 135.0652,94.192214 v 0.10542 h -0.12127 q -0.0682,0 -0.0951,0.02756 -0.0262,0.02756 -0.0262,0.09922 v 0.06821 h 0.20877 v 0.09853 h -0.20877 v 0.673172 h -0.12747 v -0.673172 h -0.12127 v -0.09853 h 0.12127 v -0.05374 q 0,-0.128846 0.0599,-0.187413 0.0599,-0.05926 0.19017,-0.05926 z"
         style="font-size:1.41111112px;stroke-width:0.26458332"
         id="path1030"
         inkscape:connector-curvature="0" />
      <path
         d="m 135.56129,94.192214 v 0.10542 h -0.12126 q -0.0682,0 -0.0951,0.02756 -0.0262,0.02756 -0.0262,0.09922 v 0.06821 h 0.20877 v 0.09853 h -0.20877 v 0.673172 h -0.12747 v -0.673172 h -0.12127 v -0.09853 h 0.12127 v -0.05374 q 0,-0.128846 0.0599,-0.187413 0.0599,-0.05926 0.19016,-0.05926 z"
         style="font-size:1.41111112px;stroke-width:0.26458332"
         id="path1032"
         inkscape:connector-curvature="0" />
      <path
         d="m 136.15867,94.515364 v 0.11989 q -0.0537,-0.02756 -0.11162,-0.04134 -0.0579,-0.01378 -0.11989,-0.01378 -0.0944,0 -0.14193,0.02894 -0.0469,0.02894 -0.0469,0.08682 0,0.0441 0.0338,0.06959 0.0338,0.02481 0.13574,0.04754 l 0.0434,0.0096 q 0.13505,0.02894 0.19155,0.08199 0.0572,0.05236 0.0572,0.146761 0,0.107487 -0.0854,0.170188 -0.0847,0.0627 -0.23358,0.0627 -0.062,0 -0.12954,-0.0124 -0.0668,-0.01171 -0.14125,-0.03583 V 95.10512 q 0.0703,0.03652 0.1385,0.05512 0.0682,0.01792 0.13505,0.01792 0.0896,0 0.1378,-0.03032 0.0482,-0.03101 0.0482,-0.08682 0,-0.05168 -0.0351,-0.07924 -0.0344,-0.02756 -0.15227,-0.05305 l -0.0441,-0.01034 q -0.11782,-0.0248 -0.17019,-0.07579 -0.0524,-0.05168 -0.0524,-0.141249 0,-0.108865 0.0772,-0.16812 0.0772,-0.05926 0.2191,-0.05926 0.0703,0 0.1323,0.01033 0.062,0.01034 0.11437,0.03101 z"
         style="font-size:1.41111112px;stroke-width:0.26458332"
         id="path1034"
         inkscape:connector-curvature="0" />
      <path
         d="m 137.06267,94.846782 v 0.06201 h -0.58291 q 0.008,0.130914 0.0785,0.199816 0.071,0.06821 0.19706,0.06821 0.073,0 0.14125,-0.01792 0.0689,-0.01791 0.13643,-0.05374 v 0.119889 q -0.0682,0.02894 -0.13987,0.0441 -0.0717,0.01516 -0.14538,0.01516 -0.18466,0 -0.29284,-0.107487 -0.10748,-0.107487 -0.10748,-0.290766 0,-0.189481 0.10197,-0.300413 0.10266,-0.111621 0.2763,-0.111621 0.15571,0 0.24598,0.100597 0.0909,0.09991 0.0909,0.272162 z m -0.12678,-0.03721 q -0.001,-0.104041 -0.0586,-0.166053 -0.0565,-0.06201 -0.15021,-0.06201 -0.1061,0 -0.17018,0.05994 -0.0634,0.05994 -0.073,0.168809 z"
         style="font-size:1.41111112px;stroke-width:0.26458332"
         id="path1036"
         inkscape:connector-curvature="0" />
      <path
         d="m 137.39615,94.273519 v 0.219108 h 0.26114 v 0.09853 h -0.26114 v 0.418924 q 0,0.0944 0.0255,0.121267 0.0262,0.02687 0.10542,0.02687 h 0.13022 v 0.106109 h -0.13022 q -0.14677,0 -0.20258,-0.05443 -0.0558,-0.05512 -0.0558,-0.199815 v -0.418924 h -0.093 v -0.09853 h 0.093 V 94.27352 Z"
         style="font-size:1.41111112px;stroke-width:0.26458332"
         id="path1038"
         inkscape:connector-curvature="0" />
    </g>
  </g>
  <g
     inkscape:groupmode="layer"
     id="layer2"
     inkscape:label="widgets"
     style="display:none">
    <rect
       style="opacity:1;vector-effect:none;fill:#00ff00;fill-opacity:0.24102568;fill-rule:evenodd;stroke:none;stroke-width:0.37540817;stroke-linecap:butt;stroke-linejoin:round;stroke-miterlimit:10;stroke-dasharray:none;stroke-dashoffset:0;stroke-opacity:0.25098039;paint-order:normal"
       id="rect86905"
       width="6.4250898"
       height="6.4251032"
       x="2.5154901"
       y="13.334324" />
    <rect
       y="12.634559"
       x="11.98764"
       height="7.8246284"
       width="7.8235297"
       id="rect1803"
       style="opacity:1;vector-effect:none;fill:#ff0000;fill-opacity:0.24102568;fill-rule:evenodd;stroke:none;stroke-width:0.45714849;stroke-linecap:butt;stroke-linejoin:round;stroke-miterlimit:10;stroke-dasharray:none;stroke-dashoffset:0;stroke-opacity:0.25098039;paint-order:normal" />
    <rect
       y="13.334324"
       x="22.858219"
       height="6.4251032"
       width="6.4261708"
       id="rect1807"
       style="opacity:1;vector-effect:none;fill:#0000ff;fill-opacity:0.24102568;fill-rule:evenodd;stroke:none;stroke-width:0.37543976;stroke-linecap:butt;stroke-linejoin:round;stroke-miterlimit:10;stroke-dasharray:none;stroke-dashoffset:0;stroke-opacity:0.25098039;paint-order:normal" />
    <rect
       style="opacity:1;vector-effect:none;fill:#ff00ff;fill-opacity:0.24102568;fill-rule:evenodd;stroke:none;stroke-width:0.04573651;stroke-linecap:butt;stroke-linejoin:round;stroke-miterlimit:10;stroke-dasharray:none;stroke-dashoffset:0;stroke-opacity:0.25098039;paint-order:normal"
       id="rect2032"
       width="0.78277081"
       height="0.78278655"
       x="28.496229"
       y="13.338635" />
    <rect
       y="23.506224"
       x="2.5154901"
       height="6.4251032"
       width="6.4250898"
       id="rect2036"
       style="opacity:1;vector-effect:none;fill:#00ff00;fill-opacity:0.24102568;fill-rule:evenodd;stroke:none;stroke-width:0.37540817;stroke-linecap:butt;stroke-linejoin:round;stroke-miterlimit:10;stroke-dasharray:none;stroke-dashoffset:0;stroke-opacity:0.25098039;paint-order:normal" />
    <rect
       style="opacity:1;vector-effect:none;fill:#00ff00;fill-opacity:0.24102568;fill-rule:evenodd;stroke:none;stroke-width:0.37540817;stroke-linecap:butt;stroke-linejoin:round;stroke-miterlimit:10;stroke-dasharray:none;stroke-dashoffset:0;stroke-opacity:0.25098039;paint-order:normal"
       id="rect2038"
       width="6.4250898"
       height="6.4251032"
       x="2.5154901"
       y="33.677055" />
    <rect
       y="43.848965"
       x="2.5154901"
       height="6.4251032"
       width="6.4250898"
       id="rect2040"
       style="opacity:1;vector-effect:none;fill:#00ff00;fill-opacity:0.24102568;fill-rule:evenodd;stroke:none;stroke-width:0.37540817;stroke-linecap:butt;stroke-linejoin:round;stroke-miterlimit:10;stroke-dasharray:none;stroke-dashoffset:0;stroke-opacity:0.25098039;paint-order:normal" />
    <rect
       style="opacity:1;vector-effect:none;fill:#00ff00;fill-opacity:0.24102568;fill-rule:evenodd;stroke:none;stroke-width:0.37540817;stroke-linecap:butt;stroke-linejoin:round;stroke-miterlimit:10;stroke-dasharray:none;stroke-dashoffset:0;stroke-opacity:0.25098039;paint-order:normal"
       id="rect2042"
       width="6.4250898"
       height="6.4251032"
       x="2.5154901"
       y="54.020874" />
    <rect
       y="64.191704"
       x="2.5154901"
       height="6.4251032"
       width="6.4250898"
       id="rect2044"
       style="opacity:1;vector-effect:none;fill:#00ff00;fill-opacity:0.24102568;fill-rule:evenodd;stroke:none;stroke-width:0.37540817;stroke-linecap:butt;stroke-linejoin:round;stroke-miterlimit:10;stroke-dasharray:none;stroke-dashoffset:0;stroke-opacity:0.25098039;paint-order:normal" />
    <rect
       style="opacity:1;vector-effect:none;fill:#00ff00;fill-opacity:0.24102568;fill-rule:evenodd;stroke:none;stroke-width:0.37540817;stroke-linecap:butt;stroke-linejoin:round;stroke-miterlimit:10;stroke-dasharray:none;stroke-dashoffset:0;stroke-opacity:0.25098039;paint-order:normal"
       id="rect2046"
       width="6.4250898"
       height="6.4251032"
       x="2.5154901"
       y="74.363617" />
    <rect
       y="84.535515"
       x="2.5154901"
       height="6.4251032"
       width="6.4250898"
       id="rect2048"
       style="opacity:1;vector-effect:none;fill:#00ff00;fill-opacity:0.24102568;fill-rule:evenodd;stroke:none;stroke-width:0.37540817;stroke-linecap:butt;stroke-linejoin:round;stroke-miterlimit:10;stroke-dasharray:none;stroke-dashoffset:0;stroke-opacity:0.25098039;paint-order:normal" />
    <rect
       style="opacity:1;vector-effect:none;fill:#ff0000;fill-opacity:0.24102568;fill-rule:evenodd;stroke:none;stroke-width:0.45714849;stroke-linecap:butt;stroke-linejoin:round;stroke-miterlimit:10;stroke-dasharray:none;stroke-dashoffset:0;stroke-opacity:0.25098039;paint-order:normal"
       id="rect2050"
       width="7.8235297"
       height="7.8246284"
       x="11.98764"
       y="22.806469" />
    <rect
       y="32.977299"
       x="11.98764"
       height="7.8246284"
       width="7.8235297"
       id="rect2052"
       style="opacity:1;vector-effect:none;fill:#ff0000;fill-opacity:0.24102568;fill-rule:evenodd;stroke:none;stroke-width:0.45714849;stroke-linecap:butt;stroke-linejoin:round;stroke-miterlimit:10;stroke-dasharray:none;stroke-dashoffset:0;stroke-opacity:0.25098039;paint-order:normal" />
    <rect
       style="opacity:1;vector-effect:none;fill:#ff0000;fill-opacity:0.24102568;fill-rule:evenodd;stroke:none;stroke-width:0.45714849;stroke-linecap:butt;stroke-linejoin:round;stroke-miterlimit:10;stroke-dasharray:none;stroke-dashoffset:0;stroke-opacity:0.25098039;paint-order:normal"
       id="rect2054"
       width="7.8235297"
       height="7.8246284"
       x="11.98764"
       y="43.149208" />
    <rect
       y="53.32111"
       x="11.98764"
       height="7.8246284"
       width="7.8235297"
       id="rect2056"
       style="opacity:1;vector-effect:none;fill:#ff0000;fill-opacity:0.24102568;fill-rule:evenodd;stroke:none;stroke-width:0.45714849;stroke-linecap:butt;stroke-linejoin:round;stroke-miterlimit:10;stroke-dasharray:none;stroke-dashoffset:0;stroke-opacity:0.25098039;paint-order:normal" />
    <rect
       style="opacity:1;vector-effect:none;fill:#ff0000;fill-opacity:0.24102568;fill-rule:evenodd;stroke:none;stroke-width:0.45714849;stroke-linecap:butt;stroke-linejoin:round;stroke-miterlimit:10;stroke-dasharray:none;stroke-dashoffset:0;stroke-opacity:0.25098039;paint-order:normal"
       id="rect2058"
       width="7.8235297"
       height="7.8246284"
       x="11.98764"
       y="63.493031" />
    <rect
       y="73.663849"
       x="11.98764"
       height="7.8246284"
       width="7.8235297"
       id="rect2060"
       style="opacity:1;vector-effect:none;fill:#ff0000;fill-opacity:0.24102568;fill-rule:evenodd;stroke:none;stroke-width:0.45714849;stroke-linecap:butt;stroke-linejoin:round;stroke-miterlimit:10;stroke-dasharray:none;stroke-dashoffset:0;stroke-opacity:0.25098039;paint-order:normal" />
    <rect
       style="opacity:1;vector-effect:none;fill:#ff0000;fill-opacity:0.24102568;fill-rule:evenodd;stroke:none;stroke-width:0.45714849;stroke-linecap:butt;stroke-linejoin:round;stroke-miterlimit:10;stroke-dasharray:none;stroke-dashoffset:0;stroke-opacity:0.25098039;paint-order:normal"
       id="rect2062"
       width="7.8235297"
       height="7.8246284"
       x="11.98764"
       y="83.835762" />
    <rect
       style="opacity:1;vector-effect:none;fill:#0000ff;fill-opacity:0.24102568;fill-rule:evenodd;stroke:none;stroke-width:0.37543976;stroke-linecap:butt;stroke-linejoin:round;stroke-miterlimit:10;stroke-dasharray:none;stroke-dashoffset:0;stroke-opacity:0.25098039;paint-order:normal"
       id="rect2064"
       width="6.4261708"
       height="6.4251032"
       x="22.858219"
       y="23.506224" />
    <rect
       y="33.677055"
       x="22.858219"
       height="6.4251032"
       width="6.4261708"
       id="rect2066"
       style="opacity:1;vector-effect:none;fill:#0000ff;fill-opacity:0.24102568;fill-rule:evenodd;stroke:none;stroke-width:0.37543976;stroke-linecap:butt;stroke-linejoin:round;stroke-miterlimit:10;stroke-dasharray:none;stroke-dashoffset:0;stroke-opacity:0.25098039;paint-order:normal" />
    <rect
       style="opacity:1;vector-effect:none;fill:#0000ff;fill-opacity:0.24102568;fill-rule:evenodd;stroke:none;stroke-width:0.37543976;stroke-linecap:butt;stroke-linejoin:round;stroke-miterlimit:10;stroke-dasharray:none;stroke-dashoffset:0;stroke-opacity:0.25098039;paint-order:normal"
       id="rect2068"
       width="6.4261708"
       height="6.4251032"
       x="22.858219"
       y="43.848965" />
    <rect
       y="54.020874"
       x="22.858219"
       height="6.4251032"
       width="6.4261708"
       id="rect2070"
       style="opacity:1;vector-effect:none;fill:#0000ff;fill-opacity:0.24102568;fill-rule:evenodd;stroke:none;stroke-width:0.37543976;stroke-linecap:butt;stroke-linejoin:round;stroke-miterlimit:10;stroke-dasharray:none;stroke-dashoffset:0;stroke-opacity:0.25098039;paint-order:normal" />
    <rect
       style="opacity:1;vector-effect:none;fill:#0000ff;fill-opacity:0.24102568;fill-rule:evenodd;stroke:none;stroke-width:0.37543976;stroke-linecap:butt;stroke-linejoin:round;stroke-miterlimit:10;stroke-dasharray:none;stroke-dashoffset:0;stroke-opacity:0.25098039;paint-order:normal"
       id="rect2072"
       width="6.4261708"
       height="6.4251032"
       x="22.858219"
       y="64.191704" />
    <rect
       y="74.363617"
       x="22.858219"
       height="6.4251032"
       width="6.4261708"
       id="rect2074"
       style="opacity:1;vector-effect:none;fill:#0000ff;fill-opacity:0.24102568;fill-rule:evenodd;stroke:none;stroke-width:0.37543976;stroke-linecap:butt;stroke-linejoin:round;stroke-miterlimit:10;stroke-dasharray:none;stroke-dashoffset:0;stroke-opacity:0.25098039;paint-order:normal" />
    <rect
       style="opacity:1;vector-effect:none;fill:#0000ff;fill-opacity:0.24102568;fill-rule:evenodd;stroke:none;stroke-width:0.37543976;stroke-linecap:butt;stroke-linejoin:round;stroke-miterlimit:10;stroke-dasharray:none;stroke-dashoffset:0;stroke-opacity:0.25098039;paint-order:normal"
       id="rect2076"
       width="6.4261708"
       height="6.4251032"
       x="22.858219"
       y="84.535515" />
    <rect
       y="23.51054"
       x="28.496229"
       height="0.78278655"
       width="0.78277081"
       id="rect2078"
       style="opacity:1;vector-effect:none;fill:#ff00ff;fill-opacity:0.24102568;fill-rule:evenodd;stroke:none;stroke-width:0.04573651;stroke-linecap:butt;stroke-linejoin:round;stroke-miterlimit:10;stroke-dasharray:none;stroke-dashoffset:0;stroke-opacity:0.25098039;paint-order:normal" />
    <rect
       style="opacity:1;vector-effect:none;fill:#ff00ff;fill-opacity:0.24102568;fill-rule:evenodd;stroke:none;stroke-width:0.04573651;stroke-linecap:butt;stroke-linejoin:round;stroke-miterlimit:10;stroke-dasharray:none;stroke-dashoffset:0;stroke-opacity:0.25098039;paint-order:normal"
       id="rect2080"
       width="0.78277081"
       height="0.78278655"
       x="28.496229"
       y="33.682449" />
    <rect
       y="43.853279"
       x="28.496229"
       height="0.78278655"
       width="0.78277081"
       id="rect2082"
       style="opacity:1;vector-effect:none;fill:#ff00ff;fill-opacity:0.24102568;fill-rule:evenodd;stroke:none;stroke-width:0.04573651;stroke-linecap:butt;stroke-linejoin:round;stroke-miterlimit:10;stroke-dasharray:none;stroke-dashoffset:0;stroke-opacity:0.25098039;paint-order:normal" />
    <rect
       style="opacity:1;vector-effect:none;fill:#ff00ff;fill-opacity:0.24102568;fill-rule:evenodd;stroke:none;stroke-width:0.04573651;stroke-linecap:butt;stroke-linejoin:round;stroke-miterlimit:10;stroke-dasharray:none;stroke-dashoffset:0;stroke-opacity:0.25098039;paint-order:normal"
       id="rect2084"
       width="0.78277081"
       height="0.78278655"
       x="28.496229"
       y="54.025192" />
    <rect
       y="64.197098"
       x="28.496229"
       height="0.78278655"
       width="0.78277081"
       id="rect2086"
       style="opacity:1;vector-effect:none;fill:#ff00ff;fill-opacity:0.24102568;fill-rule:evenodd;stroke:none;stroke-width:0.04573651;stroke-linecap:butt;stroke-linejoin:round;stroke-miterlimit:10;stroke-dasharray:none;stroke-dashoffset:0;stroke-opacity:0.25098039;paint-order:normal" />
    <rect
       style="opacity:1;vector-effect:none;fill:#ff00ff;fill-opacity:0.24102568;fill-rule:evenodd;stroke:none;stroke-width:0.04573651;stroke-linecap:butt;stroke-linejoin:round;stroke-miterlimit:10;stroke-dasharray:none;stroke-dashoffset:0;stroke-opacity:0.25098039;paint-order:normal"
       id="rect2088"
       width="0.78277081"
       height="0.78278655"
       x="28.496229"
       y="74.367928" />
    <rect
       y="84.539833"
       x="28.496229"
       height="0.78278655"
       width="0.78277081"
       id="rect2090"
       style="opacity:1;vector-effect:none;fill:#ff00ff;fill-opacity:0.24102568;fill-rule:evenodd;stroke:none;stroke-width:0.04573651;stroke-linecap:butt;stroke-linejoin:round;stroke-miterlimit:10;stroke-dasharray:none;stroke-dashoffset:0;stroke-opacity:0.25098039;paint-order:normal" />
    <rect
       style="opacity:1;vector-effect:none;fill:#ff00ff;fill-opacity:0.24102568;fill-rule:evenodd;stroke:none;stroke-width:0.04573651;stroke-linecap:butt;stroke-linejoin:round;stroke-miterlimit:10;stroke-dasharray:none;stroke-dashoffset:0;stroke-opacity:0.25098039;paint-order:normal"
       id="rect2092"
       width="0.78277081"
       height="0.78278655"
       x="28.496229"
       y="84.539833" />
  </g>
</svg>
