<?xml version="1.0" encoding="UTF-8" standalone="no"?>
<!-- Created with Inkscape (http://www.inkscape.org/) -->

<svg
   xmlns:dc="http://purl.org/dc/elements/1.1/"
   xmlns:cc="http://creativecommons.org/ns#"
   xmlns:rdf="http://www.w3.org/1999/02/22-rdf-syntax-ns#"
   xmlns:svg="http://www.w3.org/2000/svg"
   xmlns="http://www.w3.org/2000/svg"
   xmlns:sodipodi="http://sodipodi.sourceforge.net/DTD/sodipodi-0.dtd"
   xmlns:inkscape="http://www.inkscape.org/namespaces/inkscape"
   width="5.2916665mm"
   height="5.2916665mm"
   viewBox="0 0 5.2916665 5.2916665"
   version="1.1"
   id="svg1089"
   inkscape:version="0.92.2 5c3e80d, 2017-08-06"
   sodipodi:docname="LilKnob.svg">
  <defs
     id="defs1083" />
  <sodipodi:namedview
     id="base"
     pagecolor="#ffffff"
     bordercolor="#666666"
     borderopacity="1.0"
     inkscape:pageopacity="0.0"
     inkscape:pageshadow="2"
     inkscape:zoom="1.979899"
     inkscape:cx="-12.664569"
     inkscape:cy="-50.669558"
     inkscape:document-units="mm"
     inkscape:current-layer="layer1"
     showgrid="false"
     inkscape:window-width="1411"
     inkscape:window-height="855"
     inkscape:window-x="29"
     inkscape:window-y="1"
     inkscape:window-maximized="1" />
  <metadata
     id="metadata1086">
    <rdf:RDF>
      <cc:Work
         rdf:about="">
        <dc:format>image/svg+xml</dc:format>
        <dc:type
           rdf:resource="http://purl.org/dc/dcmitype/StillImage" />
        <dc:title />
      </cc:Work>
    </rdf:RDF>
  </metadata>
  <g
     inkscape:label="Layer 1"
     inkscape:groupmode="layer"
     id="layer1"
     transform="translate(-51.858714,-75.005473)">
    <circle
       style="opacity:0.73000004;fill:#6aae70;fill-opacity:1;stroke:#6c3e99;stroke-width:0.20717292;stroke-miterlimit:4;stroke-dasharray:none;stroke-opacity:0.84313725"
       id="path1634"
       cx="54.504547"
       cy="77.651306"
       r="2.5422468" />
    <path
       style="opacity:0.73000004;fill:#6aae70;fill-opacity:1;stroke:#6c3e99;stroke-width:0.20717292;stroke-miterlimit:4;stroke-dasharray:none;stroke-opacity:0.84313725"
       id="path1665"
       d="m 54.634102,77.942097 c -0.01352,-0.07841 -0.04864,-0.150183 -0.07964,-0.221643 -0.04969,-0.106053 -0.121854,-0.195823 -0.194231,-0.283665 -0.05271,-0.05797 -0.106973,-0.113654 -0.152564,-0.178734 -0.02258,-0.03428 -0.03265,-0.07349 -0.03648,-0.114906 -0.0027,-0.03838 -0.0038,-0.04268 0.01714,-0.07331 0.03902,-0.03844 0.08743,-0.06508 0.13609,-0.08557 0.08412,-0.03752 0.172592,-0.05993 0.261182,-0.08033 0.09209,-0.01651 0.184368,-0.0292 0.274855,-0.05475 0.03823,-0.01333 0.07852,-0.02638 0.112,-0.05169 0.0084,-0.0064 0.02504,-0.02352 0.033,-0.0315 0.02622,-0.04492 0.03158,-0.09789 0.03513,-0.149858 0.0063,-0.06331 -0.01133,-0.122214 -0.03486,-0.178984 -0.02965,-0.07189 -0.06661,-0.123747 -0.116707,-0.179551 -0.06416,-0.0622 -0.132306,-0.119173 -0.20002,-0.176585 -0.0466,-0.03915 -0.09317,-0.07943 -0.133345,-0.12664 -0.02208,-0.02596 -0.03207,-0.04254 -0.05125,-0.07107 -0.04858,-0.07231 -0.07133,-0.156407 -0.08571,-0.243496 -0.005,-0.05612 -0.0162,-0.113787 -0.0051,-0.169868 0.0073,-0.03718 0.01337,-0.04619 0.02808,-0.081 0.02797,-0.05116 0.06407,-0.09525 0.104573,-0.13464 0,0 -0.0874,-0.05921 -0.0874,-0.05921 v 0 c -0.03938,0.04227 -0.07521,0.08813 -0.103933,0.139961 -0.01524,0.035 -0.02226,0.04596 -0.03008,0.08356 -0.01187,0.05707 -7e-4,0.115827 0.0038,0.173076 0.01353,0.08841 0.03609,0.174157 0.08412,0.248189 0.0176,0.02694 0.0304,0.0482 0.05077,0.0728 0.0397,0.04794 0.08648,0.08847 0.133014,0.127894 0.06729,0.05715 0.135002,0.11376 0.199433,0.174808 0.05045,0.05472 0.08753,0.10412 0.117293,0.175621 0.02381,0.05463 0.04248,0.112027 0.03666,0.173603 -0.0035,0.04903 -0.0076,0.09947 -0.03212,0.142073 -0.0088,0.0091 -0.02118,0.02235 -0.03115,0.02979 -0.03268,0.02443 -0.07155,0.03756 -0.1088,0.05047 -0.08989,0.02527 -0.181486,0.03876 -0.272897,0.05564 -0.08963,0.02052 -0.179247,0.04287 -0.264605,0.07999 -0.05023,0.02214 -0.100987,0.04891 -0.14126,0.08925 -0.02285,0.03276 -0.02419,0.03984 -0.02079,0.08075 0.0035,0.04339 0.01306,0.08484 0.0357,0.12144 0.04589,0.06633 0.100653,0.123027 0.154976,0.180875 0.07253,0.08719 0.145972,0.175281 0.195845,0.280949 0.02958,0.06921 0.06267,0.138561 0.07591,0.214216 0,0 0.0932,0.05208 0.0932,0.05208 z"
       inkscape:connector-curvature="0" />
  </g>
</svg>
